PathFileType	3	(X/Y/Z)	RCH0000002 BBF 15.c3d
DataRate	CameraRate	NumFrames	NumMarkers	Units	OrigDataRate	OrigDataStartFrame	OrigNumFrames
100.0	100.0	9	23	mm	100.0	174	276
Frame#	Time	T2			MAN			LASI			RASI			LPSI			LPAT			LKNE			LANK			LMED			LHEE			LTOE			RPAT			RKNE			RANK			RMED			RHEE			RTOE			RPSI			T10			RTHI			LTHI			RTIB			LTIB			
		X1	Y1	Z1	X2	Y2	Z2	X3	Y3	Z3	X4	Y4	Z4	X5	Y5	Z5	X6	Y6	Z6	X7	Y7	Z7	X8	Y8	Z8	X9	Y9	Z9	X10	Y10	Z10	X11	Y11	Z11	X12	Y12	Z12	X13	Y13	Z13	X14	Y14	Z14	X15	Y15	Z15	X16	Y16	Z16	X17	Y17	Z17	X18	Y18	Z18	X19	Y19	Z19	X20	Y20	Z20	X21	Y21	Z21	X22	Y22	Z22	X23	Y23	Z23	

174	1.730	-826.19494	32.52783	924.58140	-953.42333	22.60655	976.46785	-894.96678	111.87080	621.91948	-848.99219	-57.35095	644.34206	-987.82808	38.35017	679.33283	-899.56629	75.98828	333.35537	-965.50292	122.18902	311.44865	-1165.40420	116.16731	131.26969	-1147.54835	47.86498	137.92545	-1170.21561	74.86276	178.12479	-1132.83642	83.59424	91.16254	-807.12460	21.88376	379.35931	-831.00525	-40.13681	337.06458	-888.07851	-65.91179	73.65256	-921.29858	-4.59388	85.23295	-940.14390	-52.93454	105.81654	-858.87701	-17.11000	68.54347	-971.31904	-29.33494	689.89535	-960.98239	19.61055	778.97376	-816.58803	-115.24406	443.98233	-964.45951	187.77705	438.77227	-832.83950	-112.06811	226.95269	-1052.10930	182.68077	238.48011	
175	1.740	-815.33240	34.10987	927.89955	-942.38069	25.47819	979.97011	-882.52546	109.68952	624.43261	-839.97978	-60.24860	648.72214	-976.59672	38.75002	683.42259	-880.52873	74.97210	337.85194	-945.81143	122.00041	314.81034	-1145.63876	118.25572	135.18763	-1127.06014	49.89009	140.04827	-1150.31125	75.69008	180.64507	-1112.33215	86.98818	94.76772	-806.10444	16.18185	380.57128	-831.58166	-45.59764	339.09514	-888.12060	-66.65137	74.49436	-920.73212	-5.28129	86.94142	-940.16109	-53.71711	106.95852	-858.61649	-17.89187	69.21541	-961.28813	-29.20043	694.81217	-950.12632	20.66949	782.68803	-814.02732	-120.20322	445.86387	-947.16817	186.95495	442.45559	-834.53949	-116.10856	227.35359	-1032.61595	183.15821	243.44839	
176	1.750	-804.53006	35.76096	931.55319	-931.35229	28.49937	983.82931	-870.21413	107.36908	627.58920	-831.22783	-63.25013	653.26655	-965.47268	38.93044	687.88837	-861.43063	73.98621	343.33018	-925.96895	121.84918	319.04453	-1124.83805	120.28625	138.84512	-1105.43307	51.90415	141.99035	-1129.59327	76.37629	182.79566	-1090.43502	90.44244	98.41999	-805.62387	10.53424	382.04639	-832.70712	-51.00049	341.42391	-888.02893	-67.15830	75.55095	-919.87522	-5.71673	88.79215	-940.08260	-54.18480	108.23641	-858.11824	-18.48299	69.98317	-951.40836	-29.26833	699.86504	-939.54474	21.47365	786.81591	-811.99776	-125.12201	447.96066	-929.88458	186.18380	446.94475	-836.78183	-120.08253	228.07047	-1012.82318	183.60767	248.85337	
177	1.760	-793.76403	37.42112	935.39992	-920.32757	31.56672	987.89670	-858.00558	104.96109	631.22544	-822.71595	-66.29634	657.84471	-954.45171	38.96356	692.53724	-842.25456	73.10400	349.59778	-905.95956	121.77344	323.97907	-1103.05525	122.23850	142.15175	-1082.78125	53.88060	143.73738	-1108.10149	76.97791	184.56423	-1067.28571	93.85569	102.01952	-805.48391	5.02780	383.70507	-834.19192	-56.23309	343.95574	-887.80426	-67.46049	76.79610	-918.73274	-5.91800	90.75960	-939.88368	-54.35005	109.65109	-857.39320	-18.91442	70.81954	-941.67447	-29.46390	704.88711	-929.20375	22.04045	791.19422	-810.39699	-129.91112	450.18032	-912.59784	185.51302	452.05027	-839.42630	-123.91474	229.05107	-992.69258	184.05918	254.47156	
178	1.770	-783.01358	39.03133	939.28800	-909.29985	34.58140	992.01747	-845.87331	102.51352	635.15634	-814.42723	-69.33300	662.33231	-943.53264	38.93060	697.17065	-822.97880	72.38282	356.44517	-885.75848	121.80292	329.42081	-1080.33784	124.10543	145.03360	-1059.21715	55.80107	145.28392	-1085.86968	77.56222	185.95163	-1043.02563	97.13770	105.47247	-805.47620	-0.26838	385.46813	-835.83680	-61.20113	346.59925	-887.44306	-67.60207	78.19844	-917.32171	-5.92430	92.81899	-939.53705	-54.25305	111.20119	-856.45766	-19.22873	71.69926	-932.08639	-29.70323	709.71828	-919.06598	22.40445	795.65297	-809.11330	-134.49367	452.44349	-895.28854	184.98210	457.56175	-842.30205	-127.54399	230.23818	-972.16669	184.54556	260.08071	
179	1.780	-772.26339	40.53758	943.06567	-898.26717	37.45607	996.03982	-833.79385	100.06881	639.18889	-806.34626	-72.31206	666.61556	-932.71576	38.91370	701.59633	-803.58537	71.85889	363.66091	-865.34103	121.95498	335.17069	-1056.72769	125.89164	147.43550	-1034.84368	57.65530	146.62805	-1062.92647	78.19731	186.96568	-1017.78630	100.21648	108.69537	-805.39741	-5.29877	387.25575	-837.44553	-65.82826	349.26651	-886.94034	-67.63429	79.71799	-915.66958	-5.78659	94.94132	-939.01677	-53.95101	112.87650	-855.33202	-19.47161	72.59666	-922.64620	-29.90123	714.21242	-909.09322	22.61356	800.02510	-808.03020	-138.80473	454.68171	-877.93723	184.61645	463.26343	-845.22201	-130.92160	231.56971	-951.18114	185.09741	265.47947	
180	1.790	-761.50495	41.89463	946.59020	-887.23256	40.12051	999.82315	-821.74837	97.66309	643.13490	-798.45619	-75.19191	670.59464	-922.00071	38.98841	705.63928	-784.06803	71.54407	371.04448	-844.69204	122.23132	341.03726	-1032.26102	127.60968	149.32021	-1009.74783	59.43981	147.76487	-1039.29596	78.94245	187.61325	-991.68095	103.04185	111.61773	-805.06309	-10.01583	388.98799	-838.83631	-70.05419	351.87366	-886.29492	-67.60586	81.30603	-913.81368	-5.55705	97.09070	-938.30407	-53.50579	114.65482	-854.04182	-19.68385	73.48456	-913.35440	-29.97934	718.24361	-899.24836	22.72420	804.15537	-807.03023	-142.78997	456.83442	-860.53228	184.42454	468.94818	-847.99947	-134.00850	232.98032	-929.67754	185.73744	270.50163	
181	1.800	-750.73726	43.06928	949.73589	-876.20375	42.52556	1003.24499	-809.72316	95.32604	646.82260	-790.73542	-77.93717	674.18619	-911.38414	39.21727	709.15118	-764.43942	71.42431	378.41538	-823.81466	122.61573	346.84709	-1006.96832	129.27533	150.66498	-983.99686	61.15532	148.68059	-1014.99819	79.84040	187.89237	-964.79913	105.58540	114.18283	-804.31940	-14.37485	390.58733	-839.85105	-73.83218	354.34247	-885.51511	-67.55443	82.90784	-911.80057	-5.27941	99.22451	-937.39311	-52.97188	116.50261	-852.61939	-19.89483	74.33480	-904.20629	-29.87207	721.71103	-889.49669	22.79607	807.90779	-805.99780	-146.40405	458.84649	-843.07540	184.39653	474.42862	-850.46454	-136.77202	234.40439	-907.61505	186.47508	275.02357	
182	1.810	-739.96649	44.04273	952.40048	-865.19232	44.64499	1006.20602	-797.70907	93.08157	650.10591	-783.15453	-80.51788	677.32516	-900.85757	39.64541	712.01755	-744.73646	71.45945	385.61803	-802.73710	123.07302	352.45138	-980.87450	130.90248	151.45678	-957.63795	62.80349	149.34820	-990.05001	80.91262	187.78603	-937.20556	107.83673	116.34706	-803.05148	-18.33120	391.98233	-840.36227	-77.12722	356.60322	-884.62269	-67.50039	84.46785	-909.68449	-4.98182	101.29603	-936.29488	-52.38718	118.37860	-851.10498	-20.11854	75.11996	-895.18858	-29.53179	724.54244	-879.80655	22.88728	811.17111	-804.82106	-149.60959	460.66702	-825.58411	184.50447	479.54493	-852.47843	-139.18363	235.77982	-884.97900	187.30229	278.96458	
